<?xml version="1.0" encoding="UTF-8" standalone="no"?><!DOCTYPE svg PUBLIC "-//W3C//DTD SVG 1.1//EN" "http://www.w3.org/Graphics/SVG/1.1/DTD/svg11.dtd"><svg width="100%" height="100%" viewBox="0 0 1677 1437" version="1.1" xmlns="http://www.w3.org/2000/svg" xmlns:xlink="http://www.w3.org/1999/xlink" xml:space="preserve" xmlns:serif="http://www.serif.com/" style="fill-rule:evenodd;clip-rule:evenodd;stroke-linejoin:round;stroke-miterlimit:2;"><rect id="Page-1" serif:id="Page 1" x="0" y="0" width="1676.41" height="1436.109" style="fill:none;"/><g id="Layer-1" serif:id="Layer 1"><path d="M672.901,965.585l428.446,-248.617l-428.446,-247.408l0,496.025Zm-480.333,295.688c-71.208,-19.312 -126.725,-76.033 -147.242,-146.033c-33.792,-129.138 -33.792,-398.271 -33.792,-398.271c0,0 0,-269.133 33.792,-397.062c20.517,-71.204 76.033,-126.725 147.242,-146.033c127.929,-35 644.471,-35 644.471,-35c0,0 517.75,0 645.683,35c72.412,19.308 126.721,74.829 146.033,146.033c34.996,127.929 34.996,397.062 34.996,397.062c0,0 0,269.133 -34.996,398.271c-19.312,70 -73.621,126.721 -146.033,146.033c-127.933,35 -645.683,35 -645.683,35c0,0 -516.542,0 -644.471,-35" style="fill:#f03;fill-rule:nonzero;"/><path d="M672.901,965.585l428.446,-248.617l-428.446,-247.408l0,496.025Z" style="fill:#fff;fill-rule:nonzero;"/></g></svg>